<?xml version="1.0" encoding="UTF-8"?>
<svg id="Layer_1" data-name="Layer 1" xmlns="http://www.w3.org/2000/svg" viewBox="0 0 64 64">
  <defs>
    <style>
      .cls-1 {
        fill: #fff;
        stroke-width: 0px;
      }
    </style>
  </defs>
  <path class="cls-1" d="m40.42,38.73c0,6.58,0,13.16,0,19.74,0,.21,0,.41,0,.62-.05,1.01-.68,1.66-1.68,1.72-.16.01-.32,0-.48,0-4.18,0-8.36,0-12.54,0-.14,0-.27,0-.41,0-1.03-.05-1.71-.72-1.72-1.75-.02-1.62-.01-3.24,0-4.87,0-.76-.31-1.33-1-1.65-.24-.11-.53-.15-.8-.16-1.05-.02-2.1-.02-3.15,0-1.1.02-1.77.71-1.78,1.82-.01,1.53-.05,3.06,0,4.59.05,1.36-.91,2.04-2.02,2.03-4.27-.04-8.54-.04-12.81,0-1.19,0-2.04-.73-2.03-2.03.03-5.64.02-11.28,0-16.93,0-.9.36-1.5,1.12-1.95,4.24-2.52,8.46-5.07,12.69-7.6.2-.12.39-.24.59-.34,1.08-.53,2.31.16,2.43,1.36.02.23,0,.46,0,.68,0,4.23,0,8.45,0,12.68,0,.23,0,.46,0,.69.05.89.66,1.58,1.56,1.61,1.21.05,2.42.05,3.63,0,.89-.04,1.49-.72,1.54-1.63.01-.21,0-.41,0-.62,0-6.62.01-13.25-.01-19.87,0-1.01.37-1.65,1.23-2.17,4.32-2.56,8.62-5.16,12.92-7.75.43-.26.88-.38,1.37-.27.72.15,1.23.72,1.31,1.48.02.23.01.46.01.68,0,6.62,0,13.25,0,19.87Z"/>
  <path class="cls-1" d="m47.16,42.26c0-5.41,0-10.83,0-16.24,0-.21,0-.41,0-.62.04-.85.58-1.46,1.41-1.61.16-.03.32-.04.48-.04,4.34,0,8.68,0,13.02,0,.11,0,.23,0,.34.01.9.1,1.5.71,1.58,1.62.02.18,0,.37,0,.55,0,10.89,0,21.79,0,32.68,0,.16,0,.32,0,.48-.06,1.01-.69,1.65-1.69,1.71-.14,0-.27,0-.41,0-4.2,0-8.4,0-12.61,0-.23,0-.46,0-.68-.03-.82-.13-1.38-.76-1.43-1.59-.01-.23,0-.46,0-.69,0-5.41,0-10.83,0-16.24Z"/>
  <path class="cls-1" d="m64,11.79c0,2.19,0,4.38,0,6.58,0,1.42-.63,2.04-2.06,2.04-4.25,0-8.49,0-12.74,0-.21,0-.41,0-.61-.03-.83-.14-1.41-.76-1.42-1.6-.02-1.96-.01-3.93,0-5.89,0-.68.39-1.14.96-1.48,1.29-.77,2.58-1.55,3.87-2.33,2.99-1.8,5.99-3.59,8.98-5.39.22-.13.43-.26.66-.36.97-.43,2.05.11,2.29,1.14.06.26.06.54.07.81,0,2.17,0,4.34,0,6.51Z"/>
</svg>