<?xml version="1.0" encoding="UTF-8"?>
<svg id="Layer_1" data-name="Layer 1" xmlns="http://www.w3.org/2000/svg" viewBox="0 0 96 96">
  <defs>
    <style>
      .cls-1 {
        fill: #bbb;
      }

      .cls-1, .cls-2 {
        stroke-width: 0px;
      }

      .cls-2 {
        fill: #fff;
      }
    </style>
  </defs>
  <path class="cls-1" d="m45.6,0C47.2,0,48.8,0,50.4,0c.42.11.83.25,1.25.32,2.82.47,5.7.71,8.46,1.43,11.6,3.03,20.74,9.68,27.51,19.5,4.97,7.21,7.69,15.26,8.09,24.05.03.67.19,1.32.29,1.99v1.44c-.1.58-.27,1.16-.28,1.75-.11,4.3-.94,8.48-2.3,12.54-3.37,10.07-9.47,18.15-18.14,24.24-7.25,5.1-15.33,7.93-24.21,8.44-.79.04-1.57.2-2.35.31h-1.44c-.46-.09-.92-.22-1.39-.27-1.82-.19-3.67-.24-5.47-.54-12.74-2.09-22.97-8.4-30.74-18.67C3.76,68.69.63,59.83.27,49.99.26,49.48.09,48.98,0,48.48,0,48.16,0,47.84,0,47.52c.09-.3.22-.6.25-.91.27-2.49.36-5.01.81-7.47,2.18-11.8,8.15-21.36,17.49-28.81C25.44,4.83,33.31,1.57,42.09.53,43.26.39,44.43.18,45.6,0Zm6.87,66.2c-.12.01-.23.02-.35.04-.17-.25-.35-.5-.51-.75-.97-1.46-1.89-2.97-2.94-4.38-.88-1.19-1.53-1.23-2.76-.42-.26.17-.51.35-.82.56.04-.31.06-.53.09-.74-.08-.06-.16-.12-.24-.18-1.08,1.19-2.18,2.37-3.22,3.6-.15.18-.12.75.05.9.43.4.99.68,1.49,1-.53-.95-.69-1.68.2-2.3.56,1,1.12,1.96,1.62,2.96.18.36.38.9.25,1.21-.72,1.66-1.55,3.27-2.4,5.02-.84-3.99-1.63-7.77-2.43-11.55-.79-3.75-.15-7.68-1.3-11.51-2.4,2.54-2.59,2.75-5.84,4.08-4.03,1.64-8.11,3.15-12.16,4.71-1.34.52-2.72.95-4.01,1.57-2.28,1.09-2.72,2.26-2.37,4.76.19,1.36.16,2.78-.01,4.14-.26,2.01-.7,4-1.13,5.99-.47,2.17-.24,4.05,1.66,5.53,1.23.95,2.26,2.16,3.47,3.13,10.57,8.44,22.57,11.81,35.98,9.9,10.91-1.56,19.98-6.61,27.39-14.72.64-.7.75-1.35.55-2.27-.8-3.68-2.15-7.24-1.83-11.16.3-3.68-1.06-5.38-4.57-6.62-4.02-1.43-8.06-2.81-12.07-4.27-2.67-.97-5.34-1.98-7.21-4.31-.18-.22-.5-.33-.87-.56-.05.43-.14.7-.09.95.71,3.61-.54,6.87-1.87,10.08-.75,1.83-2.02,3.45-1.76,5.62Zm-18.59-38.01c.37-.1.64-.15.89-.25,4.02-1.68,8.15-2.97,12.47-3.64,2.83-.44,5.51-1.31,7.93-2.84.37-.23.84-.98.72-1.22-1.32-2.73-2.53-5.53-4.74-7.71-1.46-1.44-2.61-1.47-4.2-.19-1.09.87-2.16,1.8-3.36,2.49-.71.41-1.63.56-2.47.6-1.35.06-2.71-.17-4.05-.08-2.26.16-3.45,1.1-3.94,3.04-.85,3.33-.11,6.53.76,9.81Zm26.21-4.99c.34,1.48-.61,1.64-1.31,1.86-3.5,1.1-7.01,2.16-10.52,3.18-4.58,1.33-9.18,2.61-13.77,3.92-.3-.27-.75-.5-1.02-.37-1.21.61-2.4,1.27-3.52,2.03-.73.49-1.88,1.09-1.4,2.07.28.56,1.55.93,2.34.88,2.38-.16,4.77-.43,7.09-.92,8.29-1.77,16.34-4.31,23.92-8.17,1.34-.68,2.54-1.63,3.74-2.56.29-.22.45-.89.35-1.26-.08-.29-.66-.6-1.04-.62-1.55-.07-3.1-.03-4.87-.03Zm-4.7,26.7c-2.77,3.21-5.42,6.3-8.08,9.39.12.12.23.24.35.36.57-.5,1.26-.9,1.69-1.5,1.44-2,3.12-3.72,5.2-5.06.92-.6,1.31-1.86.85-3.19Zm-8.65,9.01c.11-.09.23-.19.34-.28-2.37-2.88-4.73-5.75-7.1-8.63l-.35.29c1.82,3.33,4.09,6.28,7.11,8.62Z"/>
  <path class="cls-2" d="m52.47,66.2c-.26-2.17,1.01-3.8,1.76-5.62,1.33-3.21,2.57-6.47,1.87-10.08-.05-.25.05-.52.09-.95.38.24.69.34.87.56,1.87,2.33,4.54,3.33,7.21,4.31,4.01,1.46,8.05,2.85,12.07,4.27,3.51,1.24,4.86,2.95,4.57,6.62-.32,3.92,1.04,7.48,1.83,11.16.2.92.1,1.56-.55,2.27-7.41,8.11-16.49,13.16-27.39,14.72-13.41,1.91-25.41-1.45-35.98-9.9-1.22-.97-2.25-2.18-3.47-3.13-1.91-1.48-2.13-3.36-1.66-5.53.43-1.99.87-3.98,1.13-5.99.18-1.36.21-2.79.01-4.14-.36-2.5.08-3.67,2.37-4.76,1.29-.62,2.67-1.05,4.01-1.57,4.06-1.57,8.14-3.07,12.16-4.71,3.26-1.33,3.44-1.54,5.84-4.08,1.15,3.83.51,7.76,1.3,11.51.79,3.78,1.59,7.56,2.43,11.55.85-1.75,1.68-3.36,2.4-5.02.14-.31-.07-.85-.25-1.21-.5-.99-1.06-1.95-1.62-2.96-.88.62-.72,1.36-.2,2.3-.5-.33-1.06-.6-1.49-1-.17-.15-.2-.72-.05-.9,1.04-1.23,2.14-2.41,3.22-3.6.08.06.16.12.24.18-.03.21-.05.42-.09.74.31-.21.56-.39.82-.56,1.23-.81,1.88-.77,2.76.42,1.05,1.41,1.96,2.92,2.94,4.38.17.25.34.5.51.75.12-.01.23-.02.35-.04Zm-1.09,4.14c.46-1.32.91-2.49.09-3.74-.98,1.22-.92,2.41-.09,3.74Z"/>
  <path class="cls-2" d="m33.89,28.18c-.87-3.27-1.61-6.48-.76-9.81.49-1.93,1.68-2.88,3.94-3.04,1.34-.09,2.71.14,4.05.08.84-.04,1.77-.19,2.47-.6,1.2-.7,2.27-1.62,3.36-2.49,1.59-1.28,2.74-1.25,4.2.19,2.21,2.18,3.43,4.98,4.74,7.71.12.25-.35.99-.72,1.22-2.43,1.53-5.11,2.4-7.93,2.84-4.31.67-8.45,1.97-12.47,3.64-.25.1-.52.15-.89.25Z"/>
  <path class="cls-2" d="m60.1,23.19c1.77,0,3.32-.04,4.87.03.37.02.95.33,1.04.62.11.37-.06,1.03-.35,1.26-1.19.92-2.4,1.88-3.74,2.56-7.58,3.86-15.63,6.41-23.92,8.17-2.33.5-4.72.76-7.09.92-.79.05-2.06-.32-2.34-.88-.48-.97.66-1.57,1.4-2.07,1.12-.75,2.31-1.41,3.52-2.03.27-.14.72.1,1.02.37,4.59-1.3,9.19-2.59,13.77-3.92,3.52-1.02,7.03-2.08,10.52-3.18.7-.22,1.65-.38,1.31-1.86Z"/>
  <path class="cls-2" d="m55.4,49.89c.46,1.33.08,2.59-.85,3.19-2.08,1.34-3.76,3.06-5.2,5.06-.43.6-1.12,1.01-1.69,1.5-.12-.12-.23-.24-.35-.36,2.66-3.09,5.31-6.17,8.08-9.39Z"/>
  <path class="cls-2" d="m46.76,58.9c-3.02-2.34-5.29-5.29-7.11-8.62l.35-.29c2.37,2.88,4.73,5.75,7.1,8.63-.11.09-.23.19-.34.28Z"/>
  <path class="cls-1" d="m51.38,70.34c-.83-1.33-.89-2.53.09-3.74.82,1.25.37,2.42-.09,3.74Z"/>
</svg>