<?xml version="1.0" encoding="UTF-8"?>
<svg id="Layer_1" data-name="Layer 1" xmlns="http://www.w3.org/2000/svg" viewBox="0 0 96 96">
  <defs>
    <style>
      .cls-1 {
        fill: #bababa;
      }

      .cls-1, .cls-2, .cls-3, .cls-4, .cls-5, .cls-6, .cls-7 {
        stroke-width: 0px;
      }

      .cls-2 {
        fill: #bbb;
      }

      .cls-3 {
        fill: #b7b7b7;
      }

      .cls-4 {
        fill: #b9b9b9;
      }

      .cls-5 {
        fill: #fff;
      }

      .cls-6 {
        fill: #b4b4b4;
      }

      .cls-7 {
        fill: #f2f2f2;
      }
    </style>
  </defs>
  <g>
    <path class="cls-1" d="m80.25,55.05c-2.07,1.27-4.13,2.54-6.94,4.27.27.69.52,2.09,1.27,3.13,1.59,2.2,3.76,4.03,5.09,6.35,1.83,3.19-.04,6.22-2.05,8.43-1.86,2.05-4.89,2.82-7.7,1.81-1.9-.69-3.64-1.95-5.29-3.16-1.12-.82-1.98-2.01-3.05-3.13-1.62.85-3.08,1.61-4.56,2.39-.15.77-.29,1.42-.4,2.08-.58,3.35-2.07,4.65-5.38,4.66-3.86,0-7.72,0-12.28,0-1.18-2.26-2.44-4.66-3.49-6.67-2.82.56-5.51,1.1-8.2,1.63-2.84-2.79-5.74-5.52-8.5-8.38-1.94-2.02-1.86-4.52-.03-6.66.69,5.6,6.12,7.41,9.08,11.65,2.06-1.12,4.01-2.18,6.05-3.29,1.14.47,2.29.94,3.33,1.36.69,2.18,1.31,4.16,1.9,6.02,1.19.28,2.08.48,2.98.69-.2.09-.4.19-1.28.59,2.22,0,3.76.11,5.28-.03,1.82-.16,3.62-.53,5.43-.81.91-1.86,1.83-3.72,2.74-5.57-.15-.09-.29-.18-.44-.26,1.36-.91,2.73-1.81,4.32-2.87-.74-.64-1.35-1.17-1.96-1.69-1.01-1.01-2.03-2.03-3.04-3.04-.62-.67-1.16-1.46-1.89-1.98-1.23-.87-2.5-1.94-3.9-2.25-1.89-.43-3.92-.22-5.89-.29l-6.55-2.95c-1.06-1.14-2.12-2.29-3.17-3.43-.5-1.18-1-2.36-1.5-3.55-.3-.87-.61-1.73-.91-2.6-.03-.67-.05-1.34-.08-2.02.03-1.35.06-2.7.09-4.04.33-.84.65-1.68.98-2.52,2.66-2.19,4.14-2.09,7.58.51,1.14,1.52,2.28,3.03,3.77,5,1.19-1.79,1.65-2.47,2.21-3.32-1.11-1.03-2.02-1.86-2.93-2.7-1.02-1.34-2.03-2.69-3.05-4.03.17-1.18.34-2.36.51-3.54,1.93-.67,3.86-1.9,5.79-1.89,2.96.01,5.91.88,8.86,1.38,1.18,1.01,2.36,2.02,3.54,3.03.67.67,1.34,1.35,2.01,2.02.51,1.18,1.02,2.36,1.53,3.54.33,1.35.66,2.71.99,4.06.02.34.04.68.06,1.02-.04.98-.08,1.96-.12,2.95.71,1.19,1.42,2.37,2.13,3.56,1.66,1.87,3.32,3.74,4.98,5.61.46.39.93.77,1.39,1.16-.05-.27-.1-.55-.15-.82,1.3-.66,2.54-1.55,3.92-1.95,3.24-.93,4.1-1.74,3.95-5.25-.17-3.79-.62-7.56-.94-11.34,1.17.66,2.33,1.31,3.5,1.97.14,5.06.28,10.12.42,15.17Zm-4.96,19.77c2.96-3.03,2.76-5.69-.62-9.11-5.67-5.74-11.32-11.5-17.06-17.33,1.6-12.45-4.06-18.33-17.16-17.39-.25.57-.55,1.22-.96,2.15,2.17,2.27,4.27,4.47,6.57,6.88-.41,1.15-.91,2.55-1.41,3.95-1.46.53-2.91,1.05-3.93,1.42-2.71-2.47-5.07-4.62-7.43-6.77-2.49,2.79-2.8,8.55-.6,11.6,1.64,2.27,3.57,4.88,5.98,5.89,3.14,1.32,6.79,3.25,10.33.28,6.11,6.16,12.01,12.08,17.88,18.03,2.88,2.92,4.96,3.05,8.41.39Z"/>
    <path class="cls-5" d="m76.33,37.9c.33,3.78.78,7.55.94,11.34.15,3.51-.7,4.32-3.95,5.25-1.38.39-2.62,1.28-3.92,1.95.05.27.1.55.15.82-.46-.39-.93-.77-1.39-1.16-.23-2.39,1.42-3.47,3.14-4.5,1.05-.2,2.09-.4,3.56-.67-.19-3.33-.37-6.47-.55-9.6-.98-.02-1.97-.04-2.95-.05-.9-.96-1.81-1.92-2.71-2.88-.59-1.03-1.17-2.06-1.76-3.09.14-.81.27-1.61.41-2.42.5-.79,1.01-1.58,1.51-2.37.29-.45.57-.91.92-1.47-1.07-1.01-2.01-1.91-2.96-2.8-1.14-1.21-2.28-2.41-3.65-3.86-1.93.84-3.83,1.72-5.72,2.62-1.27-.47-2.34-.86-3.4-1.26-1.41-2.11-2.81-4.21-4.41-6.61h-7.35c-2.16,2.74-3.69,4.67-5.21,6.61-1.13.5-2.25,1-3.57,1.58-2.35-1.73-4.85-3.7-7.65-.54-.76-.36-1.53-.72-2.29-1.08,1.89-1.48,3.78-2.97,5.68-4.45,1.21.83,2.36,1.75,3.65,2.42.4.21,1.16-.29,1.76-.46.91-1.42,1.83-2.84,2.74-4.26,1-.87,1.97-2.46,2.99-2.49,4.03-.14,8.07.21,12.11.38.56,1.99,1.12,3.98,1.75,6.2,1.33.29,2.65.57,3.96.85.76-.48,1.47-1.17,2.3-1.4,1.32-.35,2.71-.38,4.08-.55,1.37,1.47,2.72,2.97,4.12,4.42,3.71,3.85,3.56,3.78,1.55,8.64-.49,1.18.08,3.1.77,4.33.34.6,2.1.39,3.22.54.7,0,1.4.02,2.11.03Z"/>
    <path class="cls-7" d="m23.54,23.71c.76.36,1.53.72,2.29,1.08-.37.3-.74.61-1.1.91-1.06.93-2.11,1.87-3.34,2.95.91,1.32,1.61,2.33,2.31,3.34.35.79.71,1.58,1.06,2.37-.46,1.18-.91,2.36-1.37,3.53-1.71,1.04-3.43,2.08-5.14,3.12-2.45.58-1.28,2.52-1.48,3.94v5.65c1.86.75,3.41,1.37,4.95,2,.71,1.14,1.42,2.28,2.13,3.42.29.86.58,1.73.87,2.59-.53.83-1.06,1.66-1.58,2.49-.5.8-1,1.59-1.6,2.55,1.22,1.15,2.22,2.1,3.22,3.04,1.02,1.42,2.04,2.84,2.78,3.86,3.67-.97,5.77-4.33,8.68-2.07,2.09,1.62,3.75,3.81,6.4,6.58h7.74c.43-3.77,2.94-5.78,5.83-7.49.61.53,1.22,1.05,1.96,1.69-1.59,1.06-2.96,1.97-4.32,2.87.15.09.29.18.44.26-.91,1.86-1.83,3.72-2.74,5.57-3.14.08-6.29.17-9.43.25-.9-.21-1.79-.42-2.98-.69-.59-1.87-1.21-3.84-1.9-6.02-1.04-.42-2.19-.89-3.33-1.36-2.04,1.11-3.99,2.17-6.05,3.29-2.97-4.23-8.4-6.04-9.08-11.65.4-.56.8-1.11,1.2-1.66.69-.48,1.37-.97,1.79-1.27-.22-3.45-1.68-5.04-4.77-5.14-.86-.03-1.7-.77-2.56-1.18,0-4.23,0-8.46,0-13.02,1.55-.48,3.16-.86,4.66-1.5.65-.28,1.08-1.09,1.6-1.66,1.39-1.32,1.22-2.72.21-4.16-.57-.8-1.12-1.61-1.67-2.42-.24-3.22,2.56-4.28,4.32-6.08Z"/>
    <path class="cls-1" d="m74.22,37.88c-1.12-.15-2.88.06-3.22-.54-.7-1.23-1.26-3.15-.77-4.33,2.02-4.86,2.16-4.79-1.55-8.64-1.4-1.45-2.75-2.94-4.12-4.42.54-.39,1.07-.78,1.61-1.17,3.23,3.33,6.46,6.67,9.69,10-.62,2.31-1.25,4.62-1.87,6.94-.21-.03-.42-.07-.63-.1.29.75.57,1.51.86,2.26Z"/>
    <path class="cls-1" d="m14.41,52.55c.85.41,1.69,1.15,2.56,1.18,3.09.1,4.55,1.69,4.77,5.14-.42.3-1.11.78-1.79,1.27-.25-.68-.5-1.35-.76-2.03-.17.2-.34.39-.52.59-1.86-1.15-3.72-2.31-5.58-3.46-.01-4.94-.02-9.87-.03-14.81.19,2.53.33,5.07.59,7.6.16,1.52.5,3.02.76,4.53Z"/>
    <path class="cls-1" d="m58.18,21.9c-1.31-.28-2.63-.56-3.96-.85-.63-2.22-1.19-4.21-1.75-6.2.53-.38,1.06-.77,1.58-1.15.85,1.35,1.72,2.68,2.54,4.05.57.95,1.06,1.95,1.59,2.92,0,.41,0,.82,0,1.23Z"/>
    <path class="cls-1" d="m54.05,13.7c-.53.38-1.06.77-1.58,1.15-4.04-.17-8.08-.52-12.11-.38-1.02.03-2,1.62-2.99,2.49-.08-.49-.16-.98-.33-2.02,5.38-3,11.22-1.85,17.02-1.24Z"/>
    <path class="cls-1" d="m19.21,29.79c.56.81,1.11,1.62,1.67,2.42,1.02,1.44,1.19,2.84-.21,4.16-.43-.51-.85-1.01-1.28-1.52-2.16-2.05-2.44-4.46-1.37-7.13.39.69.78,1.38,1.18,2.07Z"/>
    <path class="cls-1" d="m19.41,34.85c.43.51.85,1.01,1.28,1.52-.53.57-.95,1.39-1.6,1.66-1.5.64-3.11,1.02-4.66,1.5,0,4.55,0,8.79,0,13.02-.26-1.51-.6-3.01-.76-4.53-.26-2.53-.4-5.07-.59-7.6-.11,0-.21,0-.32,0,1.65-1.04,3.22-2.25,4.97-3.05,1.24-.57,2.41-.8,1.69-2.52Z"/>
    <path class="cls-1" d="m19.21,29.79c-.39-.69-.78-1.38-1.18-2.07,3.03-3.03,6.07-6.06,9.1-9.09.69.21,1.38.42,2.07.62-1.89,1.48-3.78,2.97-5.68,4.45-1.76,1.8-4.56,2.86-4.32,6.08Z"/>
    <path class="cls-4" d="m29.21,19.26c-.69-.21-1.38-.42-2.07-.62,3.36-1.08,5.82-.24,7.49,2.58-.6.17-1.36.67-1.76.46-1.29-.67-2.45-1.59-3.65-2.42Z"/>
    <path class="cls-6" d="m58.18,21.9c0-.41,0-.82,0-1.23,2.4-1.76,4.81-3.48,7.99-1.89-.54.39-1.07.78-1.61,1.17-1.36.17-2.76.2-4.08.55-.83.22-1.54.91-2.3,1.4Z"/>
    <path class="cls-1" d="m12.74,40.42c.11,0,.21,0,.32,0,0,4.94.02,9.87.03,14.81-.18-1.86-.48-3.72-.51-5.58-.04-3.08.1-6.16.16-9.23Z"/>
    <path class="cls-3" d="m80.25,55.05c-.14-5.06-.28-10.12-.42-15.17.23.5.65,1,.65,1.49-.03,4.56-.14,9.12-.22,13.68Z"/>
    <path class="cls-7" d="m75.29,74.82c-3.44,2.65-5.53,2.53-8.41-.39-5.87-5.96-11.77-11.88-17.88-18.03-3.54,2.97-7.19,1.04-10.33-.28-2.41-1.01-4.34-3.63-5.98-5.89-2.2-3.04-1.89-8.8.6-11.6,2.36,2.15,4.71,4.29,7.43,6.77,1.02-.37,2.47-.89,3.93-1.42,2.97,2.95,5.97,5.88,8.92,8.85,5.07,5.12,10.1,10.26,15.15,15.4.16,1.44-.14,3.27.64,4.18.53.62,2.56-.03,3.92-.11.67.84,1.34,1.68,2.01,2.52Z"/>
    <path class="cls-5" d="m75.29,74.82c-.67-.84-1.34-1.68-2.01-2.52.58-1.87,1.23-3.75-1.34-4.62-1.14.2-2.18.38-3.22.55-5.05-5.13-10.08-10.28-15.15-15.4-2.95-2.98-5.94-5.9-8.92-8.85.5-1.4,1-2.8,1.41-3.95-2.3-2.41-4.41-4.61-6.57-6.88.42-.93.71-1.59.96-2.15,13.1-.94,18.76,4.94,17.16,17.39,5.74,5.84,11.39,11.6,17.06,17.33,3.38,3.42,3.58,6.08.62,9.11Z"/>
    <path class="cls-1" d="m42.08,78.23c3.14-.08,6.29-.17,9.43-.25-1.81.28-3.61.65-5.43.81-1.52.14-3.06.03-5.28.03.87-.4,1.07-.5,1.28-.59Z"/>
    <path class="cls-1" d="m68.72,68.22c1.04-.18,2.08-.36,3.22-.55,2.57.87,1.92,2.76,1.34,4.62-1.36.08-3.39.73-3.92.11-.78-.91-.48-2.74-.64-4.18Z"/>
  </g>
  <g>
    <path class="cls-2" d="m48,0C21.53,0,0,21.53,0,48,0,61.44,5.56,73.59,14.49,82.31c.74-1.14,1.77-2.09,2.96-2.75-8.26-7.99-13.41-19.18-13.41-31.56C4.04,23.76,23.76,4.04,48,4.04c7.4,0,14.38,1.84,20.5,5.08v-4.52C62.28,1.65,55.33,0,48,0Z"/>
    <path class="cls-2" d="m86.9,19.92c-.68,1.2-1.69,2.21-2.87,2.94,4.99,7.13,7.93,15.8,7.93,25.14,0,24.24-19.72,43.96-43.96,43.96-2.69,0-5.32-.24-7.88-.71v4.1c2.56.43,5.2.65,7.88.65,26.47,0,48-21.53,48-48,0-10.48-3.38-20.18-9.1-28.08Z"/>
  </g>
  <circle class="cls-2" cx="82.11" cy="18.44" r="7.33"/>
  <circle class="cls-5" cx="82.11" cy="18.44" r="4.29"/>
  <circle class="cls-2" cx="15.92" cy="81.09" r="7.33"/>
  <circle class="cls-5" cx="15.92" cy="81.09" r="4.29"/>
  <circle class="cls-2" cx="73.01" cy="9.35" r="2.27"/>
  <circle class="cls-2" cx="26.53" cy="88.17" r="2.27"/>
  <circle class="cls-2" cx="33.09" cy="91.2" r="2.27"/>
</svg>