<?xml version="1.0" encoding="UTF-8"?>
<svg id="Layer_1" data-name="Layer 1" xmlns="http://www.w3.org/2000/svg" viewBox="0 0 96 96">
  <defs>
    <style>
      .cls-1 {
        fill: #8c8c8c;
      }

      .cls-1, .cls-2, .cls-3, .cls-4, .cls-5, .cls-6 {
        fill-rule: evenodd;
        stroke-width: 0px;
      }

      .cls-2 {
        fill: #efefef;
      }

      .cls-3 {
        fill: #c6c6c6;
      }

      .cls-4 {
        fill: #666;
      }

      .cls-5 {
        fill: #d6d6d6;
      }

      .cls-6 {
        fill: #b5b5b5;
      }
    </style>
  </defs>
  <path class="cls-4" d="m4,29.54v33.65c0,5.66,3.46,6.6,3.46,6.6l36.44,24.53c5.65,3.77,4.08-4.4,4.08-4.4v-30.82L4,29.54Z"/>
  <path class="cls-1" d="m92,29.54v33.65c0,5.66-3.46,6.6-3.46,6.6,0,0-30.78,20.76-36.44,24.53-5.65,3.77-4.08-4.4-4.08-4.4v-30.82l43.97-29.56Z"/>
  <path class="cls-6" d="m52.09,1.33c-2.51-1.57-6.29-1.57-8.49,0L5.89,27.1c-2.51,1.57-2.51,4.4,0,5.97l37.71,26.09c2.51,1.57,6.29,1.57,8.49,0l38.03-26.4c2.51-1.57,2.51-4.4,0-5.97L52.09,1.33Z"/>
  <path class="cls-6" d="m48,95.85c-1.89,0-3.15-1.21-3.15-2.72v-33.84c0-1.51,1.26-2.72,3.15-2.72s3.15,1.21,3.15,2.72v33.54c0,1.81-1.26,3.02-3.15,3.02Z"/>
  <path class="cls-6" d="m79.4,50.97c0,3.15.31,4.4-3.14,6.61l-7.85,5.03c-3.45,2.2-4.71.31-4.71-2.52v-8.18c0-.63,0-.94-.94-1.57-8.16-5.66-39.55-27.37-45.2-31.46l14.44-10.07c4.08,2.52,33.9,22.34,46.14,30.83.63.31.94.94.94,1.26v10.07h.31Z"/>
  <path class="cls-5" d="m78.48,39.97c-12.56-8.49-42.39-28.29-46.16-30.81l-5.65,3.46-9.11,6.29c5.65,4.09,37.05,25.47,45.22,31.12.63.31.63.63.63.94l15.39-10.69s0-.31-.31-.31Z"/>
  <path class="cls-3" d="m79.48,50.93v-9.74c0-.63-.31-.94-.94-1.26-12.58-8.48-42.46-28.26-46.24-30.78l-6.61,4.4c10.69,7.22,39.32,26.07,46.87,31.4.94.63.94,1.26.94,1.57v13.19l3.15-2.2c3.15-2.2,2.83-3.77,2.83-6.59Z"/>
  <path class="cls-2" d="m78.46,39.95c-12.56-8.48-42.4-28.27-46.17-30.79l-6.6,4.4c10.68,7.23,39.26,26.07,46.8,31.41l.31.31,6.6-4.71c-.63-.31-.63-.63-.94-.63Z"/>
</svg>